PathFileType	4	(x/y/z)	S06_PSF_T06
DataRate	CameraRate	NumFrames	NumMarkers	Units	OrigDataRate	OrigDataStartFrame	OrigNumFrames
240	240	4	51	mm	240	53	420
Frame#	Time	Sternum			R.Acromium			L.Acromium			Top.Head			R.ASIS			L.ASIS			R.PSIS			L.PSIS			R.Great.Tro			L.Great.Tro			R.Iliac.Crest			L.Iliac.Crest			V.Sacral			R.Thigh.Upper.Post			R.Thigh.Lower.Ant			R.Thigh.Lower.Post			R.Thigh.Upper.Ant			R.Knee.Lat			R.Knee.Med			R.Shank.Upper.Post			R.Shank.Lower.Ant			R.Shank.Lower.Post			R.Shank.Upper.Ant			R.Ankle.Lat			R.Ankle.Med			R.Heel.Upper			R.Heel.Med			R.Heel.Lat			R.Toe.Lat			R.Toe.Med			R.Toe.Tip			L.Thigh.Upper.Post			L.Thigh.Lower.Ant			L.Thigh.Lower.Post			L.Thigh.Upper.Ant			L.Knee.Lat			L.Knee.Med			L.Shank.Upper.Post			L.Shank.Lower.Ant			L.Shank.Lower.Post			L.Shank.Upper.Ant			L.Ankle.Lat			L.Ankle.Med			L.Heel.Upper			L.Heel.Med			L.Heel.Lat			L.Toe.Lat			L.Toe.Med			L.Toe.Tip			Cervical.Spine			Back			
		X1	Y1	Z1	X2	Y2	Z2	X3	Y3	Z3	X4	Y4	Z4	X5	Y5	Z5	X6	Y6	Z6	X7	Y7	Z7	X8	Y8	Z8	X9	Y9	Z9	X10	Y10	Z10	X11	Y11	Z11	X12	Y12	Z12	X13	Y13	Z13	X14	Y14	Z14	X15	Y15	Z15	X16	Y16	Z16	X17	Y17	Z17	X18	Y18	Z18	X19	Y19	Z19	X20	Y20	Z20	X21	Y21	Z21	X22	Y22	Z22	X23	Y23	Z23	X24	Y24	Z24	X25	Y25	Z25	X26	Y26	Z26	X27	Y27	Z27	X28	Y28	Z28	X29	Y29	Z29	X30	Y30	Z30	X31	Y31	Z31	X32	Y32	Z32	X33	Y33	Z33	X34	Y34	Z34	X35	Y35	Z35	X36	Y36	Z36	X37	Y37	Z37	X38	Y38	Z38	X39	Y39	Z39	X40	Y40	Z40	X41	Y41	Z41	X42	Y42	Z42	X43	Y43	Z43	X44	Y44	Z44	X45	Y45	Z45	X46	Y46	Z46	X47	Y47	Z47	X48	Y48	Z48	X49	Y49	Z49	X50	Y50	Z50	X51	Y51	Z51	

53	0.21667	-1202.5	1284.7	338.37	-1335.2	1489.2	502.97	-1348.6	1488.1	151.93	-1308.7	1805.7	324.95	NaN	NaN	NaN	NaN	NaN	NaN	-1447	1065	361	-1446.8	1070.1	281.3	-1319.1	968.45	513.7	-1322.6	969.99	157.04	-1347.9	1122.3	494.76	-1310.3	1119.4	174.44	-1462.1	1034.1	324.02	-1311.1	719.49	519.29	-1245.5	638.14	502.52	-1323.3	630.46	505.39	-1239.7	728.81	512.07	-1305.6	523.06	499.61	-1267.7	517.72	372.93	-1495.3	403.31	481.34	NaN	NaN	NaN	-1551.2	355.82	459.89	-1442.6	361.52	479.63	-1631.8	250.45	433.84	-1605.2	248.59	348.44	-1685.1	289.91	387.81	-1701.1	275.83	351.45	-1708.4	265.15	413.5	-1652.9	92.577	431.43	-1617.8	97.54	314.99	NaN	NaN	NaN	-1207	721.17	189.95	-1152.7	655.68	260.47	-1211.3	632.87	212.88	-1155.3	747.36	233.38	-1209	540.48	230.53	-1196.6	554.19	351.53	-1231.3	310.79	243.54	-1162	255.56	256.46	-1232.4	239.43	262.33	-1165.4	325.6	242.76	-1175.3	106.15	273.49	-1176.2	128.26	363.25	-1255.3	72.554	312.21	-1253.6	43.796	343.81	-1245.3	45.946	282.14	-1063.1	45.605	263.67	-1057.3	51.172	382.98	-980.33	66.958	336.99	-1403	1541.9	328.86	-1450.6	1267.8	330.58
54	0.22083	-1197.3	1285	338.52	-1330.2	1489.7	502.96	-1342.7	1488.3	151.88	-1303.6	1806.1	324.69	NaN	NaN	NaN	NaN	NaN	NaN	-1441.9	1065.2	360.77	-1441.7	1070.5	281.08	-1313.6	968.57	513.5	-1317.3	970.58	156.74	-1342.9	1122.4	494.59	-1305.1	1120	174.29	-1457.1	1034.4	323.71	-1302.1	719.93	519.91	-1235.9	639.26	502.97	-1313.2	630.91	506.27	-1231	730.08	512.27	-1294.4	523.63	500.7	-1257.2	518.23	373.82	-1484.3	404.81	483.22	NaN	NaN	NaN	-1540.5	357.73	461.89	-1431.8	362.69	480.87	-1621.8	253.27	435.72	-1595.5	251.14	350.09	-1674.7	293.25	389.72	-1691.2	279.35	353.47	-1697.8	268.94	415.5	-1644.6	95.51	433.6	-1609.9	99.564	317.32	NaN	NaN	NaN	-1202.7	721.28	189.56	-1148.5	655.7	260.05	-1207.3	633.03	212.65	-1150.8	747.34	232.81	-1205.3	540.62	230.41	-1192.5	554.31	351.26	-1229.2	311.09	243.54	-1160.3	255.36	256.51	-1230.8	239.77	262.38	-1163.2	325.42	242.72	-1174.7	106.16	273.64	-1175.5	128.24	363.34	-1255.3	72.825	312.27	-1253.5	43.907	343.86	-1245.2	46.123	282.16	-1063	45.407	263.75	-1057.1	50.334	383.25	-980	65.811	337.22	-1397.6	1542.3	328.7	-1445.5	1268.3	330.39
55	0.225	-1192.1	1285.3	338.66	-1325.2	1490.1	502.97	-1336.8	1488.5	151.84	-1298.6	1806.5	324.44	NaN	NaN	NaN	NaN	NaN	NaN	-1436.9	1065.5	360.53	-1436.7	1070.9	280.86	-1308.2	968.73	513.29	-1312	971.12	156.46	-1337.9	1122.5	494.41	-1299.9	1120.5	174.12	-1452	1034.7	323.4	-1293	720.46	520.49	-1226.4	640.5	503.32	-1303	631.45	507.1	-1222.3	731.44	512.39	-1283.1	524.32	501.72	-1246.8	518.91	374.61	-1473.3	406.25	485.04	NaN	NaN	NaN	-1529.8	359.54	463.84	-1420.9	363.86	482.02	-1611.7	255.97	437.49	-1585.7	253.55	351.68	-1664.3	296.24	391.47	-1681.2	282.39	355.34	-1687	272.33	417.38	-1635.7	98.352	435.9	-1601.3	101.43	319.77	NaN	NaN	NaN	-1198.6	721.37	189.21	-1144.4	655.68	259.65	-1203.4	633.18	212.44	-1146.3	747.28	232.27	-1201.6	540.75	230.32	-1188.6	554.41	351.02	-1227.2	311.38	243.58	-1158.8	255.16	256.58	-1229.3	240.09	262.48	-1161.1	325.24	242.71	-1174.1	106.19	273.81	-1174.9	128.22	363.45	-1255.3	73.08	312.34	-1253.4	44.006	343.92	-1245.1	46.301	282.19	-1062.9	45.251	263.84	-1056.8	49.545	383.52	-979.7	64.745	337.44	-1392.2	1542.7	328.57	-1440.3	1268.7	330.21
56	0.22917	-1186.9	1285.5	338.8	-1320.2	1490.5	502.99	-1330.9	1488.7	151.81	-1293.6	1806.9	324.21	NaN	NaN	NaN	NaN	NaN	NaN	-1432	1065.8	360.28	-1431.7	1071.2	280.62	-1302.7	968.94	513.09	-1306.8	971.61	156.19	-1332.9	1122.6	494.23	-1294.8	1121	173.95	-1447	1035	323.1	-1284	721.09	521.01	-1216.9	641.86	503.57	-1292.8	632.08	507.87	-1213.6	732.92	512.44	-1271.9	525.13	502.65	-1236.5	519.76	375.31	-1462.1	407.63	486.8	NaN	NaN	NaN	-1519	361.24	465.73	-1410	365.03	483.07	-1601.4	258.53	439.15	-1575.8	255.8	353.23	-1653.9	298.86	393.06	-1671.2	284.95	357.06	-1676.3	275.31	419.12	-1626.2	101.08	438.3	-1592.2	103.13	322.32	NaN	NaN	NaN	-1194.5	721.45	188.88	-1140.4	655.63	259.28	-1199.6	633.3	212.25	-1142	747.19	231.76	-1198	540.86	230.26	-1184.7	554.5	350.84	-1225.3	311.67	243.67	-1157.2	254.96	256.66	-1227.9	240.42	262.61	-1159	325.06	242.71	-1173.5	106.24	273.99	-1174.4	128.2	363.57	-1255.3	73.32	312.42	-1253.3	44.095	343.98	-1245	46.48	282.23	-1062.7	45.131	263.93	-1056.6	48.805	383.79	-979.44	63.754	337.65	-1386.8	1543.1	328.45	-1435.2	1269.2	330.03
